<svg id="visual" viewBox="0 0 900 675" width="900" height="675" xmlns="http://www.w3.org/2000/svg" xmlns:xlink="http://www.w3.org/1999/xlink" version="1.1"><path d="M0 462L129 451L257 441L386 488L514 493L643 414L771 463L900 421L900 676L771 676L643 676L514 676L386 676L257 676L129 676L0 676Z" fill="#ffffff"></path><path d="M0 534L129 466L257 510L386 500L514 462L643 499L771 462L900 451L900 676L771 676L643 676L514 676L386 676L257 676L129 676L0 676Z" fill="#b9b9b9"></path><path d="M0 519L129 515L257 561L386 564L514 502L643 542L771 523L900 558L900 676L771 676L643 676L514 676L386 676L257 676L129 676L0 676Z" fill="#777777"></path><path d="M0 607L129 543L257 604L386 591L514 600L643 574L771 598L900 578L900 676L771 676L643 676L514 676L386 676L257 676L129 676L0 676Z" fill="#3b3b3b"></path><path d="M0 632L129 618L257 608L386 632L514 622L643 619L771 603L900 630L900 676L771 676L643 676L514 676L386 676L257 676L129 676L0 676Z" fill="#000000"></path></svg>