<svg id="visual" viewBox="0 0 900 600" width="900" height="600" xmlns="http://www.w3.org/2000/svg" xmlns:xlink="http://www.w3.org/1999/xlink" version="1.1"><g stroke-width="1" stroke-linejoin="bevel"><path d="M397 263.1L489 237.1L479 201.4Z" fill="#331a21" stroke="#331a21"></path><path d="M479 201.4L363 168.4L397 263.1Z" fill="#3d1623" stroke="#3d1623"></path><path d="M479 201.4L393 114.7L363 168.4Z" fill="#2a1d20" stroke="#2a1d20"></path><path d="M555 306.9L556 295.1L489 237.1Z" fill="#411324" stroke="#411324"></path><path d="M489 237.1L572 161.4L479 201.4Z" fill="#461024" stroke="#461024"></path><path d="M426 380.9L555 306.9L489 237.1Z" fill="#2f1c21" stroke="#2f1c21"></path><path d="M358 370.9L426 380.9L397 263.1Z" fill="#241e20" stroke="#241e20"></path><path d="M397 263.1L426 380.9L489 237.1Z" fill="#411324" stroke="#411324"></path><path d="M603 224.1L489 237.1L556 295.1Z" fill="#3d1623" stroke="#3d1623"></path><path d="M603 224.1L572 161.4L489 237.1Z" fill="#331a21" stroke="#331a21"></path><path d="M479 201.4L453 57.7L393 114.7Z" fill="#1f1f1f" stroke="#1f1f1f"></path><path d="M572 161.4L544 123.7L479 201.4Z" fill="#381822" stroke="#381822"></path><path d="M393 114.7L300 151.4L363 168.4Z" fill="#331a21" stroke="#331a21"></path><path d="M363 168.4L251 225.1L397 263.1Z" fill="#461024" stroke="#461024"></path><path d="M279 346.9L358 370.9L397 263.1Z" fill="#3d1623" stroke="#3d1623"></path><path d="M650 361.9L603 224.1L556 295.1Z" fill="#1f1f1f" stroke="#1f1f1f"></path><path d="M544 123.7L453 57.7L479 201.4Z" fill="#461024" stroke="#461024"></path><path d="M321 0L234 109.7L300 151.4Z" fill="#1f1f1f" stroke="#1f1f1f"></path><path d="M300 151.4L251 225.1L363 168.4Z" fill="#2f1c21" stroke="#2f1c21"></path><path d="M372 425.6L425 424.6L426 380.9Z" fill="#241e20" stroke="#241e20"></path><path d="M426 380.9L519 412.6L555 306.9Z" fill="#3d1623" stroke="#3d1623"></path><path d="M603 224.1L609 139.4L572 161.4Z" fill="#4a0c25" stroke="#4a0c25"></path><path d="M572 161.4L609 139.4L544 123.7Z" fill="#411324" stroke="#411324"></path><path d="M544 123.7L481 0L453 57.7Z" fill="#411324" stroke="#411324"></path><path d="M251 225.1L279 346.9L397 263.1Z" fill="#381822" stroke="#381822"></path><path d="M358 370.9L372 425.6L426 380.9Z" fill="#331a21" stroke="#331a21"></path><path d="M425 424.6L519 412.6L426 380.9Z" fill="#331a21" stroke="#331a21"></path><path d="M555 306.9L650 361.9L556 295.1Z" fill="#2a1d20" stroke="#2a1d20"></path><path d="M234 401.6L372 425.6L358 370.9Z" fill="#381822" stroke="#381822"></path><path d="M579 0L481 0L544 123.7Z" fill="#4a0c25" stroke="#4a0c25"></path><path d="M321 0L300 151.4L393 114.7Z" fill="#4f0626" stroke="#4f0626"></path><path d="M300 151.4L234 109.7L251 225.1Z" fill="#381822" stroke="#381822"></path><path d="M321 0L393 114.7L453 57.7Z" fill="#331a21" stroke="#331a21"></path><path d="M733 151.4L644 109.7L609 139.4Z" fill="#4f0626" stroke="#4f0626"></path><path d="M609 139.4L644 109.7L544 123.7Z" fill="#4f0626" stroke="#4f0626"></path><path d="M176 199.4L194 242.1L251 225.1Z" fill="#2a1d20" stroke="#2a1d20"></path><path d="M251 225.1L194 242.1L279 346.9Z" fill="#331a21" stroke="#331a21"></path><path d="M519 412.6L650 361.9L555 306.9Z" fill="#2a1d20" stroke="#2a1d20"></path><path d="M603 224.1L733 151.4L609 139.4Z" fill="#381822" stroke="#381822"></path><path d="M425 424.6L524 477.3L519 412.6Z" fill="#461024" stroke="#461024"></path><path d="M519 412.6L663 435.6L650 361.9Z" fill="#461024" stroke="#461024"></path><path d="M453 551.3L524 477.3L425 424.6Z" fill="#381822" stroke="#381822"></path><path d="M481 0L321 0L453 57.7Z" fill="#3d1623" stroke="#3d1623"></path><path d="M234 109.7L176 199.4L251 225.1Z" fill="#241e20" stroke="#241e20"></path><path d="M279 346.9L234 401.6L358 370.9Z" fill="#2f1c21" stroke="#2f1c21"></path><path d="M372 425.6L337 484.3L425 424.6Z" fill="#3d1623" stroke="#3d1623"></path><path d="M152 373.9L234 401.6L279 346.9Z" fill="#3d1623" stroke="#3d1623"></path><path d="M196 429.6L234 401.6L152 373.9Z" fill="#2f1c21" stroke="#2f1c21"></path><path d="M234 109.7L209 92.7L176 199.4Z" fill="#331a21" stroke="#331a21"></path><path d="M267 0L209 92.7L234 109.7Z" fill="#461024" stroke="#461024"></path><path d="M234 401.6L337 484.3L372 425.6Z" fill="#461024" stroke="#461024"></path><path d="M644 109.7L579 0L544 123.7Z" fill="#3d1623" stroke="#3d1623"></path><path d="M321 0L267 0L234 109.7Z" fill="#4f0626" stroke="#4f0626"></path><path d="M690 452.6L732 303.9L650 361.9Z" fill="#1f1f1f" stroke="#1f1f1f"></path><path d="M650 361.9L732 303.9L603 224.1Z" fill="#1f1f1f" stroke="#1f1f1f"></path><path d="M524 477.3L663 435.6L519 412.6Z" fill="#331a21" stroke="#331a21"></path><path d="M747 222.1L733 151.4L603 224.1Z" fill="#411324" stroke="#411324"></path><path d="M644 109.7L664 0L579 0Z" fill="#331a21" stroke="#331a21"></path><path d="M732 303.9L747 222.1L603 224.1Z" fill="#381822" stroke="#381822"></path><path d="M152 373.9L279 346.9L194 242.1Z" fill="#1f1f1f" stroke="#1f1f1f"></path><path d="M210 488.3L290 532.3L337 484.3Z" fill="#1f1f1f" stroke="#1f1f1f"></path><path d="M75 332.9L152 373.9L194 242.1Z" fill="#1f1f1f" stroke="#1f1f1f"></path><path d="M383 600L453 551.3L337 484.3Z" fill="#241e20" stroke="#241e20"></path><path d="M337 484.3L453 551.3L425 424.6Z" fill="#411324" stroke="#411324"></path><path d="M638 522.3L690 452.6L663 435.6Z" fill="#411324" stroke="#411324"></path><path d="M722 71.7L664 0L644 109.7Z" fill="#3d1623" stroke="#3d1623"></path><path d="M806 67.7L722 71.7L733 151.4Z" fill="#2a1d20" stroke="#2a1d20"></path><path d="M733 151.4L722 71.7L644 109.7Z" fill="#411324" stroke="#411324"></path><path d="M210 488.3L337 484.3L234 401.6Z" fill="#1f1f1f" stroke="#1f1f1f"></path><path d="M638 522.3L663 435.6L524 477.3Z" fill="#4f0626" stroke="#4f0626"></path><path d="M663 435.6L690 452.6L650 361.9Z" fill="#241e20" stroke="#241e20"></path><path d="M838 379.9L775 265.1L732 303.9Z" fill="#4a0c25" stroke="#4a0c25"></path><path d="M732 303.9L775 265.1L747 222.1Z" fill="#331a21" stroke="#331a21"></path><path d="M747 222.1L815 206.4L733 151.4Z" fill="#461024" stroke="#461024"></path><path d="M115 553.3L210 488.3L196 429.6Z" fill="#3d1623" stroke="#3d1623"></path><path d="M196 429.6L210 488.3L234 401.6Z" fill="#381822" stroke="#381822"></path><path d="M209 92.7L102 160.4L176 199.4Z" fill="#1f1f1f" stroke="#1f1f1f"></path><path d="M176 199.4L85 244.1L194 242.1Z" fill="#3d1623" stroke="#3d1623"></path><path d="M99 95.7L102 160.4L209 92.7Z" fill="#381822" stroke="#381822"></path><path d="M267 0L181 0L209 92.7Z" fill="#411324" stroke="#411324"></path><path d="M525 600L638 522.3L524 477.3Z" fill="#411324" stroke="#411324"></path><path d="M102 160.4L85 244.1L176 199.4Z" fill="#2f1c21" stroke="#2f1c21"></path><path d="M152 373.9L51 408.6L196 429.6Z" fill="#381822" stroke="#381822"></path><path d="M181 0L99 95.7L209 92.7Z" fill="#411324" stroke="#411324"></path><path d="M102 160.4L0 231.1L85 244.1Z" fill="#411324" stroke="#411324"></path><path d="M383 600L485 600L453 551.3Z" fill="#1f1f1f" stroke="#1f1f1f"></path><path d="M453 551.3L525 600L524 477.3Z" fill="#2f1c21" stroke="#2f1c21"></path><path d="M290 532.3L383 600L337 484.3Z" fill="#381822" stroke="#381822"></path><path d="M290 600L383 600L290 532.3Z" fill="#3d1623" stroke="#3d1623"></path><path d="M51 408.6L75 332.9L0 368.9Z" fill="#2f1c21" stroke="#2f1c21"></path><path d="M85 244.1L75 332.9L194 242.1Z" fill="#4a0c25" stroke="#4a0c25"></path><path d="M900 288.1L815 206.4L775 265.1Z" fill="#1f1f1f" stroke="#1f1f1f"></path><path d="M775 265.1L815 206.4L747 222.1Z" fill="#3d1623" stroke="#3d1623"></path><path d="M485 600L525 600L453 551.3Z" fill="#381822" stroke="#381822"></path><path d="M722 71.7L753 0L664 0Z" fill="#4a0c25" stroke="#4a0c25"></path><path d="M806 67.7L753 0L722 71.7Z" fill="#241e20" stroke="#241e20"></path><path d="M213 600L290 532.3L210 488.3Z" fill="#1f1f1f" stroke="#1f1f1f"></path><path d="M213 600L290 600L290 532.3Z" fill="#461024" stroke="#461024"></path><path d="M181 0L111 0L99 95.7Z" fill="#3d1623" stroke="#3d1623"></path><path d="M815 206.4L806 67.7L733 151.4Z" fill="#4a0c25" stroke="#4a0c25"></path><path d="M783 506.3L808 431.6L690 452.6Z" fill="#381822" stroke="#381822"></path><path d="M690 452.6L808 431.6L732 303.9Z" fill="#1f1f1f" stroke="#1f1f1f"></path><path d="M730 550.3L690 452.6L638 522.3Z" fill="#4a0c25" stroke="#4a0c25"></path><path d="M0 231.1L75 332.9L85 244.1Z" fill="#461024" stroke="#461024"></path><path d="M75 332.9L51 408.6L152 373.9Z" fill="#2f1c21" stroke="#2f1c21"></path><path d="M0 231.1L102 160.4L0 136.4Z" fill="#241e20" stroke="#241e20"></path><path d="M808 431.6L838 379.9L732 303.9Z" fill="#411324" stroke="#411324"></path><path d="M815 206.4L900 176.4L806 67.7Z" fill="#461024" stroke="#461024"></path><path d="M525 600L656 600L638 522.3Z" fill="#411324" stroke="#411324"></path><path d="M115 553.3L213 600L210 488.3Z" fill="#331a21" stroke="#331a21"></path><path d="M900 53.7L802 0L806 67.7Z" fill="#381822" stroke="#381822"></path><path d="M806 67.7L802 0L753 0Z" fill="#4a0c25" stroke="#4a0c25"></path><path d="M656 600L730 550.3L638 522.3Z" fill="#2f1c21" stroke="#2f1c21"></path><path d="M0 136.4L102 160.4L99 95.7Z" fill="#411324" stroke="#411324"></path><path d="M730 550.3L783 506.3L690 452.6Z" fill="#3d1623" stroke="#3d1623"></path><path d="M900 431.6L900 337.9L838 379.9Z" fill="#241e20" stroke="#241e20"></path><path d="M0 67.7L0 136.4L99 95.7Z" fill="#241e20" stroke="#241e20"></path><path d="M51 408.6L115 553.3L196 429.6Z" fill="#411324" stroke="#411324"></path><path d="M0 231.1L0 368.9L75 332.9Z" fill="#331a21" stroke="#331a21"></path><path d="M0 526.3L91 600L115 553.3Z" fill="#411324" stroke="#411324"></path><path d="M656 600L717 600L730 550.3Z" fill="#381822" stroke="#381822"></path><path d="M730 550.3L814 600L783 506.3Z" fill="#461024" stroke="#461024"></path><path d="M900 288.1L900 176.4L815 206.4Z" fill="#1f1f1f" stroke="#1f1f1f"></path><path d="M900 337.9L900 288.1L838 379.9Z" fill="#4f0626" stroke="#4f0626"></path><path d="M838 379.9L900 288.1L775 265.1Z" fill="#331a21" stroke="#331a21"></path><path d="M0 368.9L0 392.6L51 408.6Z" fill="#1f1f1f" stroke="#1f1f1f"></path><path d="M111 0L0 67.7L99 95.7Z" fill="#461024" stroke="#461024"></path><path d="M900 431.6L838 379.9L808 431.6Z" fill="#2a1d20" stroke="#2a1d20"></path><path d="M900 176.4L900 53.7L806 67.7Z" fill="#411324" stroke="#411324"></path><path d="M111 0L0 0L0 67.7Z" fill="#1f1f1f" stroke="#1f1f1f"></path><path d="M900 543.3L900 431.6L808 431.6Z" fill="#3d1623" stroke="#3d1623"></path><path d="M900 543.3L808 431.6L783 506.3Z" fill="#3d1623" stroke="#3d1623"></path><path d="M0 526.3L115 553.3L51 408.6Z" fill="#2a1d20" stroke="#2a1d20"></path><path d="M115 553.3L91 600L213 600Z" fill="#2f1c21" stroke="#2f1c21"></path><path d="M900 53.7L900 0L802 0Z" fill="#381822" stroke="#381822"></path><path d="M717 600L814 600L730 550.3Z" fill="#2f1c21" stroke="#2f1c21"></path><path d="M0 392.6L0 526.3L51 408.6Z" fill="#3d1623" stroke="#3d1623"></path><path d="M814 600L900 543.3L783 506.3Z" fill="#2a1d20" stroke="#2a1d20"></path><path d="M0 526.3L0 600L91 600Z" fill="#461024" stroke="#461024"></path><path d="M814 600L900 600L900 543.3Z" fill="#3d1623" stroke="#3d1623"></path></g></svg>